<?xml version="1.0" encoding="UTF-8"?>
<!DOCTYPE svg PUBLIC "-//W3C//DTD SVG 1.1//EN" "http://www.w3.org/Graphics/SVG/1.1/DTD/svg11.dtd">
<svg xmlns="http://www.w3.org/2000/svg" version="1.1" width="660px" height="960px" style="shape-rendering:geometricPrecision; text-rendering:geometricPrecision; image-rendering:optimizeQuality; fill-rule:evenodd; clip-rule:evenodd" xmlns:xlink="http://www.w3.org/1999/xlink">
<g><path style="opacity:0.999" fill="#e33e3f" d="M 313.5,1.5 C 353.989,-0.598123 392.989,5.90188 430.5,21C 452.388,30.2289 469.222,45.0623 481,65.5C 483.599,70.5586 484.599,75.8919 484,81.5C 483.5,82 483,82.5 482.5,83C 480.5,83.1667 478.5,83.3333 476.5,83.5C 401.11,73.2905 325.443,70.7905 249.5,76C 228.708,77.2361 208.042,79.5695 187.5,83C 183.833,83.6667 180.167,83.6667 176.5,83C 174.496,80.1592 173.996,76.9926 175,73.5C 182.431,53.399 195.598,38.2324 214.5,28C 245.719,12.1137 278.719,3.28039 313.5,1.5 Z"/></g>
<g><path style="opacity:0.999" fill="#e33e3f" d="M 659.5,412.5 C 659.5,474.833 659.5,537.167 659.5,599.5C 655.016,612.816 646.016,621.649 632.5,626C 430.5,626.667 228.5,626.667 26.5,626C 12.9836,621.649 3.98363,612.816 -0.5,599.5C -0.5,537.167 -0.5,474.833 -0.5,412.5C 1.13353,370.838 9.63353,330.505 25,291.5C 51.2902,232.211 94.7902,191.045 155.5,168C 188.148,155.755 221.814,147.755 256.5,144C 318.32,137.338 379.987,139.338 441.5,150C 490.561,158.874 534.561,178.54 573.5,209C 614.708,245.89 640.541,291.723 651,346.5C 655.125,368.484 657.959,390.484 659.5,412.5 Z M 315.5,226.5 C 364.177,222.912 399.677,242.578 422,285.5C 437.634,324.364 432.634,360.364 407,393.5C 376.686,425.601 340.186,435.768 297.5,424C 248.145,403.82 225.312,366.987 229,313.5C 238.68,265.32 267.513,236.32 315.5,226.5 Z"/></g>
<g><path style="opacity:1" fill="#e33e3f" d="M 659.5,730.5 C 659.5,779.5 659.5,828.5 659.5,877.5C 658.622,892.079 655.788,906.413 651,920.5C 641.508,940.64 625.674,952.474 603.5,956C 594.708,957.348 586.041,958.514 577.5,959.5C 412.167,959.5 246.833,959.5 81.5,959.5C 66.9206,958.622 52.5873,955.788 38.5,951C 18.3596,941.508 6.5263,925.674 3,903.5C 1.65238,894.708 0.485717,886.041 -0.5,877.5C -0.5,828.5 -0.5,779.5 -0.5,730.5C 1.32388,709.177 12.9905,697.677 34.5,696C 132.827,694.881 231.161,694.381 329.5,694.5C 427.839,694.381 526.173,694.881 624.5,696C 646.009,697.677 657.676,709.177 659.5,730.5 Z"/></g>
</svg>
