<svg
      width="1600"
      height="900"
      viewBox="0 0 1600 900"
      fill="none"
      xmlns="http://www.w3.org/2000/svg"
     
      preserveAspectRatio="xMidYMid slice"
    >
      <defs>
        <linearGradient id="deliveryGrad1" x1="0%" y1="0%" x2="100%" y2="100%">
          <stop offset="0%" stop-color="#0b0f14" stop-opacity="1"/>
          <stop offset="50%" stop-color="#0f131a" stop-opacity="1"/>
          <stop offset="100%" stop-color="#0b0f14" stop-opacity="1"/>
        </linearGradient>
        <radialGradient id="deliveryGlow1" cx="70%" cy="60%">
          <stop offset="0%" stop-color="#3b82f6" stop-opacity="0.15"/>
          <stop offset="100%" stop-color="#3b82f6" stop-opacity="0"/>
        </radialGradient>
        <radialGradient id="deliveryGlow2" cx="30%" cy="80%">
          <stop offset="0%" stop-color="#22d3ee" stop-opacity="0.1"/>
          <stop offset="100%" stop-color="#22d3ee" stop-opacity="0"/>
        </radialGradient>
      </defs>
      
      <rect width="1600" height="900" fill="url(#deliveryGrad1)"/>
      <rect width="1600" height="900" fill="url(#deliveryGlow1)"/>
      <rect width="1600" height="900" fill="url(#deliveryGlow2)"/>
      
      <path
        d="M -100 650 Q 300 550 600 600 T 1200 550 T 1700 600"
        stroke="#3b82f6"
        stroke-width="2"
        fill="none"
        opacity="0.2"/>
      <path
        d="M -50 680 Q 350 600 650 620 T 1250 580 T 1700 630"
        stroke="#22d3ee"
        stroke-width="1.5"
        fill="none"
        opacity="0.15"/>
      <path
        d="M 0 700 Q 400 620 700 650 T 1300 620 T 1750 670"
        stroke="#10b981"
        stroke-width="1"
        fill="none"
        opacity="0.1"/>
      
      <path
        d="M 100 720 L 400 690 L 700 710 L 1000 680 L 1300 700 L 1600 670"
        stroke="#3b82f6"
        stroke-width="1"
        fill="none"
        opacity="0.25"
        stroke-dasharray="15 25"/>
      <path
        d="M 150 750 L 450 720 L 750 740 L 1050 710 L 1350 730 L 1650 700"
        stroke="#22d3ee"
        stroke-width="1"
        fill="none"
        opacity="0.2"
        stroke-dasharray="10 20"/>
      
      <g opacity="0.03">
        <line x1="400" y1="0" x2="400" y2="900" stroke="#22d3ee" stroke-width="1"/>
        <line x1="800" y1="0" x2="800" y2="900" stroke="#22d3ee" stroke-width="1"/>
        <line x1="1200" y1="0" x2="1200" y2="900" stroke="#22d3ee" stroke-width="1"/>
        <line x1="0" y1="600" x2="1600" y2="600" stroke="#22d3ee" stroke-width="1"/>
        <line x1="0" y1="750" x2="1600" y2="750" stroke="#22d3ee" stroke-width="1"/>
      </g>
      
      <path
        d="M 1200 800 Q 1300 700 1400 800"
        stroke="#3b82f6"
        stroke-width="1.5"
        fill="none"
        opacity="0.15"/>
      <path
        d="M 200 800 Q 300 720 400 800"
        stroke="#22d3ee"
        stroke-width="1"
        fill="none"
        opacity="0.12"/>
      
      <circle cx="600" cy="600" r="3" fill="#3b82f6" opacity="0.4"/>
      <circle cx="1200" cy="550" r="2.5" fill="#22d3ee" opacity="0.35"/>
      <circle cx="350" cy="600" r="2" fill="#10b981" opacity="0.3"/>
      
      
      <g transform="translate(800, 300) scale(2.2)">
        
        <rect x="-60" y="-15" width="120" height="30" fill="#0f131a" stroke="#3b82f6" stroke-width="2" rx="4" opacity="0.75"/>
        <rect x="-50" y="-10" width="100" height="20" fill="#3b82f6" opacity="0.1"/>
        
        
        <line x1="-80" y1="-10" x2="-120" y2="-40" stroke="#22d3ee" stroke-width="2.5" opacity="0.5"/>
        <line x1="80" y1="-10" x2="120" y2="-40" stroke="#22d3ee" stroke-width="2.5" opacity="0.5"/>
        <line x1="-80" y1="10" x2="-120" y2="40" stroke="#22d3ee" stroke-width="2.5" opacity="0.5"/>
        <line x1="80" y1="10" x2="120" y2="40" stroke="#22d3ee" stroke-width="2.5" opacity="0.5"/>
        
        
        <circle cx="-120" cy="-40" r="25" fill="none" stroke="#10b981" stroke-width="1.5" opacity="0.35"/>
        <circle cx="120" cy="-40" r="25" fill="none" stroke="#10b981" stroke-width="1.5" opacity="0.35"/>
        <circle cx="-120" cy="40" r="25" fill="none" stroke="#10b981" stroke-width="1.5" opacity="0.35"/>
        <circle cx="120" cy="40" r="25" fill="none" stroke="#10b981" stroke-width="1.5" opacity="0.35"/>
        
        
        <rect x="-35" y="20" width="70" height="50" fill="#0b0f14" stroke="#3b82f6" stroke-width="2" opacity="0.8"/>
        <line x1="-35" y1="45" x2="35" y2="45" stroke="#22d3ee" stroke-width="1.5" opacity="0.5"/>
        <line x1="0" y1="20" x2="0" y2="70" stroke="#22d3ee" stroke-width="1.5" opacity="0.5"/>
        
        
        <rect x="-20" y="30" width="40" height="25" fill="#3b82f6" opacity="0.15" rx="1"/>
        <circle cx="0" cy="42" r="8" fill="#10b981" opacity="0.4"/>
        
        
        <circle cx="0" cy="0" r="150" fill="#3b82f6" opacity="0.03"/>
        <circle cx="0" cy="0" r="100" fill="#3b82f6" opacity="0.04"/>
      </g>
    </svg>