<svg width="1600" height="900" viewBox="0 0 1600 900" fill="none" xmlns="http://www.w3.org/2000/svg">
  <defs>
    <linearGradient id="hcGrad" x1="0%" y1="0%" x2="100%" y2="100%">
      <stop offset="0%" stop-color="#0b0f14"/>
      <stop offset="55%" stop-color="#0f131a"/>
      <stop offset="100%" stop-color="#0b0f14"/>
    </linearGradient>
    <radialGradient id="hcGlow" cx="60%" cy="45%" r="55%">
      <stop offset="0%" stop-color="#22d3ee" stop-opacity="0.16"/>
      <stop offset="100%" stop-color="#22d3ee" stop-opacity="0"/>
    </radialGradient>
    <radialGradient id="hcGlow2" cx="30%" cy="70%" r="55%">
      <stop offset="0%" stop-color="#10b981" stop-opacity="0.1"/>
      <stop offset="100%" stop-color="#10b981" stop-opacity="0"/>
    </radialGradient>
  </defs>
  <rect width="1600" height="900" fill="url(#hcGrad)"/>
  <rect width="1600" height="900" fill="url(#hcGlow)"/>
  <rect width="1600" height="900" fill="url(#hcGlow2)"/>

  <!-- Soft medical pulse line -->
  <path d="M 50 680 L 300 680 L 360 620 L 430 740 L 520 680 L 820 680 L 900 620 L 980 740 L 1080 680 L 1550 680" stroke="#22d3ee" stroke-width="1.5" opacity="0.2" fill="none"/>

  <!-- Healthcare bot: service pod with cross -->
  <g transform="translate(800, 320) scale(2.1)">
    <circle cx="0" cy="0" r="135" fill="#22d3ee" opacity="0.04"/>
    <circle cx="0" cy="0" r="95" fill="#22d3ee" opacity="0.06"/>

    <!-- Pod body -->
    <rect x="-70" y="-60" width="140" height="160" rx="24" fill="#0f131a" stroke="#3b82f6" stroke-width="2" opacity="0.85"/>
    <rect x="-50" y="-40" width="100" height="120" rx="18" fill="#3b82f6" opacity="0.12"/>

    <!-- Cross icon -->
    <rect x="-10" y="-20" width="20" height="60" fill="#10b981" opacity="0.6"/>
    <rect x="-30" y="0" width="60" height="20" fill="#10b981" opacity="0.6"/>

    <!-- Side lights -->
    <circle cx="-55" cy="70" r="7" fill="#22d3ee" opacity="0.6"/>
    <circle cx="55" cy="70" r="7" fill="#22d3ee" opacity="0.6"/>
  </g>
</svg>
