<svg
      width="1600"
      height="900"
      viewBox="0 0 1600 900"
      fill="none"
      xmlns="http://www.w3.org/2000/svg"
     
      preserveAspectRatio="xMidYMid slice"
    >
      <defs>
        <linearGradient id="inspectionGrad1" x1="0%" y1="0%" x2="100%" y2="100%">
          <stop offset="0%" stop-color="#0f131a" stop-opacity="1"/>
          <stop offset="100%" stop-color="#0b0f14" stop-opacity="1"/>
        </linearGradient>
        <linearGradient id="scanBeam1" x1="0%" y1="0%" x2="100%" y2="100%">
          <stop offset="0%" stop-color="#3b82f6" stop-opacity="0"/>
          <stop offset="50%" stop-color="#3b82f6" stop-opacity="0.15"/>
          <stop offset="100%" stop-color="#3b82f6" stop-opacity="0"/>
        </linearGradient>
      </defs>
      
      <rect width="1600" height="900" fill="url(#inspectionGrad1)"/>
      
      <line x1="0" y1="500" x2="700" y2="900" stroke="url(#scanBeam1)" stroke-width="60" opacity="0.4"/>
      <line x1="400" y1="400" x2="1100" y2="900" stroke="#22d3ee" stroke-width="1.5" opacity="0.2"/>
      <line x1="800" y1="450" x2="1400" y2="850" stroke="#3b82f6" stroke-width="1" opacity="0.15"/>
      <line x1="1000" y1="500" x2="1600" y2="900" stroke="#10b981" stroke-width="1" opacity="0.12"/>
      
      <g opacity="0.15">
        <line x1="0" y1="600" x2="1600" y2="600" stroke="#22d3ee" stroke-width="0.5"/>
        <line x1="0" y1="650" x2="1600" y2="650" stroke="#22d3ee" stroke-width="0.5"/>
        <line x1="0" y1="700" x2="1600" y2="700" stroke="#22d3ee" stroke-width="0.5"/>
        <line x1="0" y1="750" x2="1600" y2="750" stroke="#22d3ee" stroke-width="0.5"/>
        <line x1="0" y1="800" x2="1600" y2="800" stroke="#22d3ee" stroke-width="0.5"/>
        
        <line x1="200" y1="500" x2="200" y2="900" stroke="#22d3ee" stroke-width="0.5"/>
        <line x1="400" y1="500" x2="400" y2="900" stroke="#22d3ee" stroke-width="0.5"/>
        <line x1="600" y1="500" x2="600" y2="900" stroke="#22d3ee" stroke-width="0.5"/>
        <line x1="800" y1="500" x2="800" y2="900" stroke="#22d3ee" stroke-width="0.5"/>
        <line x1="1000" y1="500" x2="1000" y2="900" stroke="#22d3ee" stroke-width="0.5"/>
        <line x1="1200" y1="500" x2="1200" y2="900" stroke="#22d3ee" stroke-width="0.5"/>
        <line x1="1400" y1="500" x2="1400" y2="900" stroke="#22d3ee" stroke-width="0.5"/>
      </g>
      
      <g opacity="0.2">
        <path d="M 250 650 L 450 650 L 450 780 L 250 780 Z" stroke="#3b82f6" stroke-width="1.5" fill="none"/>
        <path
          d="M 270 670 L 430 670 L 430 760 L 270 760 Z"
          stroke="#3b82f6"
          stroke-width="0.5"
          fill="none"
          stroke-dasharray="5 5"/>
      </g>
      
      <g opacity="0.18">
        <circle cx="900" cy="700" r="80" stroke="#22d3ee" stroke-width="1.5" fill="none"/>
        <circle cx="900" cy="700" r="90" stroke="#22d3ee" stroke-width="0.5" fill="none" stroke-dasharray="5 5"/>
      </g>
      
      <g opacity="0.15">
        <polygon points="1300,620 1450,620 1400,750 1250,750" stroke="#10b981" stroke-width="1.5" fill="none"/>
        <polygon
          points="1310,635 1440,635 1390,735 1260,735"
          stroke="#10b981"
          stroke-width="0.5"
          fill="none"
          stroke-dasharray="5 5"/>
      </g>
      
      <g opacity="0.3">
        <line x1="340" y1="705" x2="360" y2="705" stroke="#3b82f6" stroke-width="1.5"/>
        <line x1="350" y1="695" x2="350" y2="715" stroke="#3b82f6" stroke-width="1.5"/>
        
        <line x1="890" y1="690" x2="910" y2="690" stroke="#22d3ee" stroke-width="1.5"/>
        <line x1="900" y1="680" x2="900" y2="700" stroke="#22d3ee" stroke-width="1.5"/>
        
        <line x1="1365" y1="675" x2="1385" y2="675" stroke="#10b981" stroke-width="1.5"/>
        <line x1="1375" y1="665" x2="1375" y2="685" stroke="#10b981" stroke-width="1.5"/>
      </g>
      
      <circle cx="500" cy="720" r="2" fill="#3b82f6" opacity="0.4"/>
      <circle cx="750" cy="680" r="2" fill="#22d3ee" opacity="0.35"/>
      <circle cx="1100" cy="710" r="2" fill="#10b981" opacity="0.3"/>
      <circle cx="1350" cy="750" r="1.5" fill="#22d3ee" opacity="0.35"/>
      
      
      <g transform="translate(800, 320) scale(2.5)">
        
        <path d="M -50 0 L -25 -43 L 25 -43 L 50 0 L 25 43 L -25 43 Z" 
              fill="#0f131a" stroke="#22d3ee" stroke-width="2.5" opacity="0.9"/>
        <path d="M -40 0 L -20 -35 L 20 -35 L 40 0 L 20 35 L -20 35 Z" 
              fill="#22d3ee" opacity="0.12"/>
        
        
        <circle cx="0" cy="0" r="35" fill="#0b0f14" stroke="#3b82f6" stroke-width="2" opacity="0.9"/>
        <circle cx="0" cy="0" r="25" fill="#3b82f6" opacity="0.25"/>
        <circle cx="0" cy="0" r="15" fill="#10b981" opacity="0.5"/>
        <circle cx="0" cy="0" r="8" fill="#10b981" opacity="0.7"/>
        
        
        <line x1="-60" y1="-35" x2="-100" y2="-60" stroke="#22d3ee" stroke-width="2.5" opacity="0.6"/>
        <line x1="60" y1="-35" x2="100" y2="-60" stroke="#22d3ee" stroke-width="2.5" opacity="0.6"/>
        <line x1="-60" y1="35" x2="-100" y2="60" stroke="#22d3ee" stroke-width="2.5" opacity="0.6"/>
        <line x1="60" y1="35" x2="100" y2="60" stroke="#22d3ee" stroke-width="2.5" opacity="0.6"/>
        
        
        <circle cx="-100" cy="-60" r="22" fill="none" stroke="#10b981" stroke-width="1.5" opacity="0.45"/>
        <circle cx="100" cy="-60" r="22" fill="none" stroke="#10b981" stroke-width="1.5" opacity="0.45"/>
        <circle cx="-100" cy="60" r="22" fill="none" stroke="#10b981" stroke-width="1.5" opacity="0.45"/>
        <circle cx="100" cy="60" r="22" fill="none" stroke="#10b981" stroke-width="1.5" opacity="0.45"/>
        
        
        <line x1="-100" y1="-60" x2="-85" y2="-75" stroke="#10b981" stroke-width="1.5" opacity="0.35"/>
        <line x1="100" y1="-60" x2="115" y2="-75" stroke="#10b981" stroke-width="1.5" opacity="0.35"/>
        <line x1="-100" y1="60" x2="-85" y2="75" stroke="#10b981" stroke-width="1.5" opacity="0.35"/>
        <line x1="100" y1="60" x2="115" y2="75" stroke="#10b981" stroke-width="1.5" opacity="0.35"/>
        
        
        <path d="M -35 50 L -60 150 L 60 150 L 35 50 Z" 
              fill="#3b82f6" opacity="0.15" stroke="#3b82f6" stroke-width="1.5"/>
        <line x1="-15" y1="50" x2="-30" y2="150" stroke="#22d3ee" stroke-width="1.5" opacity="0.4"/>
        <line x1="15" y1="50" x2="30" y2="150" stroke="#22d3ee" stroke-width="1.5" opacity="0.4"/>
        <line x1="0" y1="50" x2="0" y2="150" stroke="#10b981" stroke-width="1.5" opacity="0.55"/>
        
        
        <line x1="-45" y1="100" x2="45" y2="100" stroke="#22d3ee" stroke-width="1.5" opacity="0.3"/>
        <line x1="-50" y1="125" x2="50" y2="125" stroke="#22d3ee" stroke-width="1.5" opacity="0.3"/>
        
        
        <circle cx="-35" cy="130" r="4" fill="#10b981" opacity="0.7"/>
        <circle cx="0" cy="145" r="4" fill="#10b981" opacity="0.7"/>
        <circle cx="35" cy="130" r="4" fill="#10b981" opacity="0.7"/>
        
        
        <line x1="-40" y1="130" x2="-30" y2="130" stroke="#10b981" stroke-width="1.5" opacity="0.5"/>
        <line x1="-35" y1="125" x2="-35" y2="135" stroke="#10b981" stroke-width="1.5" opacity="0.5"/>
        
        
        <rect x="-85" y="-10" width="18" height="20" fill="#0b0f14" stroke="#3b82f6" stroke-width="2" opacity="0.85" rx="2"/>
        <rect x="67" y="-10" width="18" height="20" fill="#0b0f14" stroke="#3b82f6" stroke-width="2" opacity="0.85" rx="2"/>
        <circle cx="-76" cy="0" r="4" fill="#3b82f6" opacity="0.6"/>
        <circle cx="76" cy="0" r="4" fill="#3b82f6" opacity="0.6"/>
        
        
        <circle cx="0" cy="0" r="150" fill="#22d3ee" opacity="0.04"/>
        <circle cx="0" cy="70" r="100" fill="#3b82f6" opacity="0.04"/>
      </g>
    </svg>
